<svg version="1.1" id="Layer_1" xmlns="http://www.w3.org/2000/svg" xmlns:xlink="http://www.w3.org/1999/xlink" x="0px" y="0px"
	 width="100%" viewBox="0 0 1024 640" enable-background="new 0 0 1024 640" xml:space="preserve">
<path fill="#000000" opacity="1.000000" stroke="none" 
	d="
M436.121582,294.952332 
	C436.181213,273.809296 436.262085,253.158569 436.279846,232.507812 
	C436.283142,228.684036 437.263641,225.628540 440.281921,222.842300 
	C461.329834,203.412552 482.248505,183.841873 503.093689,164.194443 
	C505.801025,161.642654 507.571503,161.833267 510.143829,164.283066 
	C527.508118,180.820541 544.983582,197.241257 562.422668,213.700134 
	C562.543762,213.814423 562.642517,213.962509 562.780884,214.047012 
	C575.771851,221.978928 578.204712,233.791321 577.413391,248.204178 
	C576.301025,268.465057 577.014648,288.833832 577.219055,309.153717 
	C577.267151,313.937256 575.729736,315.500885 570.922546,315.415619 
	C556.268738,315.155762 541.607300,315.339417 526.948792,315.321655 
	C521.212402,315.314697 520.588135,314.512360 521.022461,309.027496 
	C521.893799,298.024689 525.271912,287.998657 531.287598,278.650757 
	C538.172546,267.952118 537.943298,256.766754 530.889282,246.244339 
	C524.041992,236.030304 513.862244,231.693817 501.874847,233.683609 
	C489.443481,235.747101 481.275482,243.564102 478.048676,255.806610 
	C475.873688,264.058502 477.312073,272.019501 482.180542,279.177795 
	C488.533691,288.519043 491.655914,298.862549 492.227936,310.102692 
	C492.424133,313.958313 491.166016,315.436066 487.162872,315.392090 
	C471.839966,315.223694 456.513306,315.237549 441.189972,315.385712 
	C437.434143,315.422028 436.299500,314.121277 436.464447,310.415436 
	C436.685883,305.440125 436.265778,300.436218 436.121582,294.952332 
M446.375336,236.864502 
	C446.376373,257.855408 446.438416,278.846619 446.319702,299.836853 
	C446.299377,303.424377 447.321625,304.952271 451.127289,304.859131 
	C459.618652,304.651367 468.119720,304.695099 476.614136,304.820160 
	C480.462280,304.876831 481.242340,303.165741 480.291962,299.831421 
	C478.772186,294.499115 476.449951,289.571594 473.416382,284.925995 
	C467.621826,276.052307 465.292572,266.327179 467.270660,255.855850 
	C470.410431,239.234787 482.618561,226.853989 498.782593,223.534348 
	C514.354858,220.336212 530.394287,226.816788 539.441284,239.962067 
	C548.758240,253.499619 548.931519,270.898499 539.732422,285.095367 
	C536.710815,289.758606 534.519409,294.715424 532.902222,300.013947 
	C531.779358,303.692719 533.049988,304.873962 536.636230,304.830139 
	C544.798157,304.730408 552.970215,304.581116 561.122131,304.883667 
	C565.584595,305.049316 566.807068,303.442383 566.768799,299.122864 
	C566.584167,278.300110 566.624817,257.474335 566.758179,236.650742 
	C566.780396,233.190002 565.724243,230.742584 563.187012,228.388687 
	C545.602173,212.074753 528.076599,195.695465 510.691772,179.169067 
	C507.627533,176.256119 505.735626,176.070221 502.529327,179.111908 
	C485.010315,195.731567 467.285004,212.134460 449.553070,228.527985 
	C447.279327,230.630112 446.064880,232.899338 446.375336,236.864502 
z"/>
<path fill="#000000" opacity="1.000000" stroke="none" 
	d="
M512.980957,329.316406 
	C505.826324,329.313568 499.165253,329.200531 492.510010,329.349792 
	C488.863129,329.431580 487.944214,327.579773 487.999908,324.398407 
	C488.054962,321.250702 488.513428,318.797363 492.556885,318.840393 
	C502.044373,318.941437 511.534058,318.930023 521.021973,318.854156 
	C524.886841,318.823273 525.156616,321.220642 525.175293,324.155182 
	C525.194214,327.136902 524.840454,329.520813 520.966492,329.317871 
	C518.476746,329.187439 515.973877,329.307678 512.980957,329.316406 
z"/>
<path fill="#000000" opacity="1.000000" stroke="none" 
	d="
M493.751953,339.890381 
	C492.920868,334.443970 494.876190,332.438660 500.029816,332.831177 
	C504.996094,333.209381 510.016846,333.036560 515.007019,332.886230 
	C519.181763,332.760437 519.340454,335.297607 519.377502,338.430511 
	C519.414795,341.584198 518.773865,343.501495 515.018372,343.368774 
	C509.364624,343.169006 503.698578,343.322632 498.037781,343.312927 
	C495.948914,343.309357 493.914124,343.190704 493.751953,339.890381 
z"/>
</svg>